<svg width="1440" height="5099" viewBox="0 0 1440 5099" fill="none" xmlns="http://www.w3.org/2000/svg">
<g clip-path="url(#clip0)">
<g clip-path="url(#clip1)">
<path opacity="0.3" d="M2062.84 1618.65C3150.27 1618.65 4031.81 738.484 4031.81 -347.256C4031.81 -1433 3150.27 -2313.16 2062.84 -2313.16C975.41 -2313.16 93.8721 -1433 93.8721 -347.256C93.8721 738.484 975.41 1618.65 2062.84 1618.65Z" stroke="#4A40AC" stroke-width="2"/>
<path opacity="0.3" d="M-1441.41 2534.36C67.5171 2534.36 1290.74 1313.03 1290.74 -193.545C1290.74 -1700.12 67.5171 -2921.44 -1441.41 -2921.44C-2950.33 -2921.44 -4173.56 -1700.12 -4173.56 -193.545C-4173.56 1313.03 -2950.33 2534.36 -1441.41 2534.36Z" stroke="#4A40AC" stroke-width="2"/>
<path opacity="0.3" d="M82.6077 1778.92C779.394 1778.92 1344.25 1214.95 1344.25 519.243C1344.25 -176.459 779.394 -740.437 82.6077 -740.437C-614.178 -740.437 -1179.04 -176.459 -1179.04 519.243C-1179.04 1214.95 -614.178 1778.92 82.6077 1778.92Z" stroke="#4A40AC" stroke-width="2"/>
<path opacity="0.3" d="M1742.74 3465.99C2830.17 3465.99 3711.71 2585.83 3711.71 1500.09C3711.71 414.347 2830.17 -465.819 1742.74 -465.819C655.306 -465.819 -226.232 414.347 -226.232 1500.09C-226.232 2585.83 655.306 3465.99 1742.74 3465.99Z" stroke="#4A40AC" stroke-width="2"/>
<path opacity="0.3" d="M328.553 5077.15C1025.34 5077.15 1590.2 4513.17 1590.2 3817.47C1590.2 3121.77 1025.34 2557.79 328.553 2557.79C-368.233 2557.79 -933.09 3121.77 -933.09 3817.47C-933.09 4513.17 -368.233 5077.15 328.553 5077.15Z" stroke="#4A40AC" stroke-width="2"/>
</g>
<path d="M1284.33 94H1265.67C1264.19 94 1263 95.1939 1263 96.6667V115.333C1263 116.806 1264.19 118 1265.67 118H1284.33C1285.81 118 1287 116.806 1287 115.333V96.6667C1287 95.1939 1285.81 94 1284.33 94Z" fill="#0E66FF"/>
<path fill-rule="evenodd" clip-rule="evenodd" d="M1283.06 99.9393C1283.65 100.525 1283.65 101.475 1283.06 102.061L1273.06 112.061C1272.47 112.646 1271.53 112.646 1270.94 112.061L1266.94 108.061C1266.35 107.475 1266.35 106.525 1266.94 105.939C1267.53 105.354 1268.47 105.354 1269.06 105.939L1272 108.879L1280.94 99.9393C1281.53 99.3536 1282.47 99.3536 1283.06 99.9393Z" fill="white"/>
</g>
<defs>
<clipPath id="clip0">
<rect width="1440" height="5098.7" fill="white"/>
</clipPath>
<clipPath id="clip1">
<rect width="1440" height="5098.7" fill="white"/>
</clipPath>
</defs>
</svg>
